<svg width="32" height="32" viewBox="0 0 32 32" fill="none" xmlns="http://www.w3.org/2000/svg">
<g clip-path="url(#clip0_118_935)">
<path d="M26 0H6C2.68629 0 0 2.68629 0 6V26C0 29.3137 2.68629 32 6 32H26C29.3137 32 32 29.3137 32 26V6C32 2.68629 29.3137 0 26 0Z" fill="#18181B"/>
<path d="M17.6471 6.93799C18.0932 6.93799 18.5837 6.94479 19.2052 7.14357C19.8132 7.33806 20.5084 7.7028 21.4265 8.35542C22.5342 9.14278 23.3228 9.726 23.8683 10.1412C23.9776 10.2061 24.0855 10.2749 24.1912 10.3479C25.1058 10.9791 25.9725 12.0039 25.9994 13.4013L26 13.4681V18.0977C26 19.6637 25.266 20.7566 24.2448 21.4154C23.2813 22.0369 22.131 22.2338 21.2428 22.2338H17.1245V24.0925C17.1245 25.1802 16.2077 26.062 15.0767 26.062H11.6051L11.4142 25.8704L8.18227 22.6288L8.0024 22.4483V22.1983C8.0024 14.7767 8.00206 13.7764 8.00171 13.4191C8.00154 13.2401 8.00138 13.2218 8.00124 12.6421L8.00098 8.49653C8.00099 7.64111 8.72142 6.93799 9.61765 6.93799H17.6471ZM13.2821 10.3352C12.7166 10.3352 12.2582 10.776 12.2582 11.3199V14.1704L12.3122 14.1703L20.2716 14.1602C20.7775 14.1595 21.1881 14.5532 21.1883 15.0397C21.1886 15.5764 21.1886 16.183 21.1883 16.7283H21.2422V16.7284L21.1883 16.7283C21.1881 17.2141 20.7787 17.6076 20.2735 17.608L13.2827 17.6135C12.7175 17.6139 12.2596 18.0547 12.2596 18.5982V25.0772H15.0767C15.6422 25.0772 16.1006 24.6364 16.1006 24.0925V21.2491H21.2428C21.9989 21.2491 22.9303 21.0776 23.6744 20.5976C24.4214 20.1157 24.9761 19.3249 24.9761 18.0977V13.4681C24.9761 12.4623 24.3626 11.6782 23.5942 11.1479C22.8267 10.6181 21.8957 10.3352 21.2413 10.3352H13.2821ZM24.9174 18.289C24.9163 18.3102 24.9152 18.3313 24.9138 18.3522C24.9152 18.3313 24.9163 18.3102 24.9174 18.289ZM24.9204 18.2151C24.9198 18.2342 24.919 18.2532 24.9182 18.2721C24.919 18.2532 24.9199 18.2342 24.9204 18.2151ZM24.9218 18.1541C24.9216 18.1719 24.9211 18.1897 24.9206 18.2074L24.9218 18.1541ZM21.0209 17.3207L21.0058 17.3377C21.016 17.3265 21.0258 17.315 21.0354 17.3033C21.0306 17.3091 21.0258 17.315 21.0209 17.3207ZM22.4338 10.6179C22.4549 10.6254 22.4761 10.633 22.4973 10.6409L22.4338 10.6179Z" fill="#39D9C5"/>
</g>
<defs>
<clipPath id="clip0_118_935">
<rect width="32" height="32" fill="white"/>
</clipPath>
</defs>
</svg>
